<mxfile host="app.diagrams.net" modified="2023-11-16T03:05:29.810Z" agent="Mozilla/5.0 (Windows NT 10.0; Win64; x64) AppleWebKit/537.36 (KHTML, like Gecko) Chrome/119.0.0.0 Safari/537.36" etag="ixUqjFZUYKLCEDSba8Bk" version="22.1.2" type="github">
  <diagram id="C5RBs43oDa-KdzZeNtuy" name="Page-1">
    <mxGraphModel dx="1434" dy="738" grid="1" gridSize="10" guides="1" tooltips="1" connect="1" arrows="1" fold="1" page="1" pageScale="1" pageWidth="827" pageHeight="1169" math="0" shadow="0">
      <root>
        <mxCell id="WIyWlLk6GJQsqaUBKTNV-0" />
        <mxCell id="WIyWlLk6GJQsqaUBKTNV-1" parent="WIyWlLk6GJQsqaUBKTNV-0" />
        <mxCell id="y8VJE_J6GTfmhfMKeJkr-6" value="" style="edgeStyle=orthogonalEdgeStyle;rounded=0;orthogonalLoop=1;jettySize=auto;html=1;" edge="1" parent="WIyWlLk6GJQsqaUBKTNV-1" source="y8VJE_J6GTfmhfMKeJkr-1" target="y8VJE_J6GTfmhfMKeJkr-5">
          <mxGeometry relative="1" as="geometry" />
        </mxCell>
        <mxCell id="y8VJE_J6GTfmhfMKeJkr-1" value="订单变更" style="strokeWidth=2;html=1;shape=mxgraph.flowchart.start_1;whiteSpace=wrap;" vertex="1" parent="WIyWlLk6GJQsqaUBKTNV-1">
          <mxGeometry x="340" y="10" width="100" height="60" as="geometry" />
        </mxCell>
        <mxCell id="y8VJE_J6GTfmhfMKeJkr-8" value="" style="edgeStyle=orthogonalEdgeStyle;rounded=0;orthogonalLoop=1;jettySize=auto;html=1;entryX=0.5;entryY=0;entryDx=0;entryDy=0;entryPerimeter=0;" edge="1" parent="WIyWlLk6GJQsqaUBKTNV-1" source="y8VJE_J6GTfmhfMKeJkr-5" target="y8VJE_J6GTfmhfMKeJkr-9">
          <mxGeometry relative="1" as="geometry">
            <mxPoint x="390" y="280" as="targetPoint" />
          </mxGeometry>
        </mxCell>
        <mxCell id="y8VJE_J6GTfmhfMKeJkr-5" value="销售发起变更" style="whiteSpace=wrap;html=1;strokeWidth=2;" vertex="1" parent="WIyWlLk6GJQsqaUBKTNV-1">
          <mxGeometry x="330" y="150" width="120" height="60" as="geometry" />
        </mxCell>
        <mxCell id="y8VJE_J6GTfmhfMKeJkr-11" value="" style="edgeStyle=orthogonalEdgeStyle;rounded=0;orthogonalLoop=1;jettySize=auto;html=1;" edge="1" parent="WIyWlLk6GJQsqaUBKTNV-1" source="y8VJE_J6GTfmhfMKeJkr-9" target="y8VJE_J6GTfmhfMKeJkr-10">
          <mxGeometry relative="1" as="geometry" />
        </mxCell>
        <mxCell id="y8VJE_J6GTfmhfMKeJkr-17" value="YES" style="edgeLabel;html=1;align=center;verticalAlign=middle;resizable=0;points=[];" vertex="1" connectable="0" parent="y8VJE_J6GTfmhfMKeJkr-11">
          <mxGeometry x="-0.3558" relative="1" as="geometry">
            <mxPoint as="offset" />
          </mxGeometry>
        </mxCell>
        <mxCell id="y8VJE_J6GTfmhfMKeJkr-13" value="" style="edgeStyle=orthogonalEdgeStyle;rounded=0;orthogonalLoop=1;jettySize=auto;html=1;" edge="1" parent="WIyWlLk6GJQsqaUBKTNV-1" source="y8VJE_J6GTfmhfMKeJkr-9" target="y8VJE_J6GTfmhfMKeJkr-12">
          <mxGeometry relative="1" as="geometry" />
        </mxCell>
        <mxCell id="y8VJE_J6GTfmhfMKeJkr-16" value="NO" style="edgeLabel;html=1;align=center;verticalAlign=middle;resizable=0;points=[];" vertex="1" connectable="0" parent="y8VJE_J6GTfmhfMKeJkr-13">
          <mxGeometry x="-0.3451" relative="1" as="geometry">
            <mxPoint x="1" as="offset" />
          </mxGeometry>
        </mxCell>
        <mxCell id="y8VJE_J6GTfmhfMKeJkr-9" value="是否需要用户先确认？" style="strokeWidth=2;html=1;shape=mxgraph.flowchart.decision;whiteSpace=wrap;" vertex="1" parent="WIyWlLk6GJQsqaUBKTNV-1">
          <mxGeometry x="322.5" y="280" width="135" height="110" as="geometry" />
        </mxCell>
        <mxCell id="y8VJE_J6GTfmhfMKeJkr-48" style="edgeStyle=orthogonalEdgeStyle;rounded=0;orthogonalLoop=1;jettySize=auto;html=1;entryX=0;entryY=0.5;entryDx=0;entryDy=0;" edge="1" parent="WIyWlLk6GJQsqaUBKTNV-1" source="y8VJE_J6GTfmhfMKeJkr-10" target="y8VJE_J6GTfmhfMKeJkr-12">
          <mxGeometry relative="1" as="geometry" />
        </mxCell>
        <mxCell id="y8VJE_J6GTfmhfMKeJkr-10" value="用户确认" style="whiteSpace=wrap;html=1;strokeWidth=2;" vertex="1" parent="WIyWlLk6GJQsqaUBKTNV-1">
          <mxGeometry x="110" y="420" width="120" height="60" as="geometry" />
        </mxCell>
        <mxCell id="y8VJE_J6GTfmhfMKeJkr-15" value="" style="edgeStyle=orthogonalEdgeStyle;rounded=0;orthogonalLoop=1;jettySize=auto;html=1;" edge="1" parent="WIyWlLk6GJQsqaUBKTNV-1" source="y8VJE_J6GTfmhfMKeJkr-12" target="y8VJE_J6GTfmhfMKeJkr-14">
          <mxGeometry relative="1" as="geometry" />
        </mxCell>
        <mxCell id="y8VJE_J6GTfmhfMKeJkr-12" value="一级技术审核" style="whiteSpace=wrap;html=1;strokeWidth=2;" vertex="1" parent="WIyWlLk6GJQsqaUBKTNV-1">
          <mxGeometry x="540" y="420" width="120" height="60" as="geometry" />
        </mxCell>
        <mxCell id="y8VJE_J6GTfmhfMKeJkr-21" value="" style="edgeStyle=orthogonalEdgeStyle;rounded=0;orthogonalLoop=1;jettySize=auto;html=1;" edge="1" parent="WIyWlLk6GJQsqaUBKTNV-1" source="y8VJE_J6GTfmhfMKeJkr-14" target="y8VJE_J6GTfmhfMKeJkr-20">
          <mxGeometry relative="1" as="geometry">
            <Array as="points">
              <mxPoint x="415" y="590" />
            </Array>
          </mxGeometry>
        </mxCell>
        <mxCell id="y8VJE_J6GTfmhfMKeJkr-22" value="YES" style="edgeLabel;html=1;align=center;verticalAlign=middle;resizable=0;points=[];" vertex="1" connectable="0" parent="y8VJE_J6GTfmhfMKeJkr-21">
          <mxGeometry x="-0.5667" relative="1" as="geometry">
            <mxPoint as="offset" />
          </mxGeometry>
        </mxCell>
        <mxCell id="y8VJE_J6GTfmhfMKeJkr-14" value="是否售后？" style="rhombus;whiteSpace=wrap;html=1;strokeWidth=2;" vertex="1" parent="WIyWlLk6GJQsqaUBKTNV-1">
          <mxGeometry x="560" y="550" width="80" height="80" as="geometry" />
        </mxCell>
        <mxCell id="y8VJE_J6GTfmhfMKeJkr-24" value="" style="edgeStyle=orthogonalEdgeStyle;rounded=0;orthogonalLoop=1;jettySize=auto;html=1;" edge="1" parent="WIyWlLk6GJQsqaUBKTNV-1" source="y8VJE_J6GTfmhfMKeJkr-20" target="y8VJE_J6GTfmhfMKeJkr-23">
          <mxGeometry relative="1" as="geometry" />
        </mxCell>
        <mxCell id="y8VJE_J6GTfmhfMKeJkr-25" value="YES" style="edgeLabel;html=1;align=center;verticalAlign=middle;resizable=0;points=[];" vertex="1" connectable="0" parent="y8VJE_J6GTfmhfMKeJkr-24">
          <mxGeometry x="-0.5053" y="-1" relative="1" as="geometry">
            <mxPoint as="offset" />
          </mxGeometry>
        </mxCell>
        <mxCell id="y8VJE_J6GTfmhfMKeJkr-58" value="" style="edgeStyle=orthogonalEdgeStyle;rounded=0;orthogonalLoop=1;jettySize=auto;html=1;entryX=0;entryY=0.5;entryDx=0;entryDy=0;" edge="1" parent="WIyWlLk6GJQsqaUBKTNV-1" source="y8VJE_J6GTfmhfMKeJkr-20" target="y8VJE_J6GTfmhfMKeJkr-29">
          <mxGeometry relative="1" as="geometry">
            <mxPoint x="280" y="680" as="targetPoint" />
            <Array as="points">
              <mxPoint x="240" y="680" />
              <mxPoint x="240" y="1155" />
            </Array>
          </mxGeometry>
        </mxCell>
        <mxCell id="y8VJE_J6GTfmhfMKeJkr-60" value="NO" style="edgeLabel;html=1;align=center;verticalAlign=middle;resizable=0;points=[];" vertex="1" connectable="0" parent="y8VJE_J6GTfmhfMKeJkr-58">
          <mxGeometry x="-0.8194" y="-3" relative="1" as="geometry">
            <mxPoint as="offset" />
          </mxGeometry>
        </mxCell>
        <mxCell id="y8VJE_J6GTfmhfMKeJkr-20" value="变更是否满足二级QA审核场景？" style="rhombus;whiteSpace=wrap;html=1;strokeWidth=2;" vertex="1" parent="WIyWlLk6GJQsqaUBKTNV-1">
          <mxGeometry x="360" y="630" width="110" height="100" as="geometry" />
        </mxCell>
        <mxCell id="y8VJE_J6GTfmhfMKeJkr-27" value="" style="edgeStyle=orthogonalEdgeStyle;rounded=0;orthogonalLoop=1;jettySize=auto;html=1;" edge="1" parent="WIyWlLk6GJQsqaUBKTNV-1" source="y8VJE_J6GTfmhfMKeJkr-23" target="y8VJE_J6GTfmhfMKeJkr-26">
          <mxGeometry relative="1" as="geometry" />
        </mxCell>
        <mxCell id="y8VJE_J6GTfmhfMKeJkr-28" value="YES" style="edgeLabel;html=1;align=center;verticalAlign=middle;resizable=0;points=[];" vertex="1" connectable="0" parent="y8VJE_J6GTfmhfMKeJkr-27">
          <mxGeometry x="-0.5442" y="3" relative="1" as="geometry">
            <mxPoint as="offset" />
          </mxGeometry>
        </mxCell>
        <mxCell id="y8VJE_J6GTfmhfMKeJkr-59" style="edgeStyle=orthogonalEdgeStyle;rounded=0;orthogonalLoop=1;jettySize=auto;html=1;entryX=0;entryY=0.5;entryDx=0;entryDy=0;" edge="1" parent="WIyWlLk6GJQsqaUBKTNV-1" source="y8VJE_J6GTfmhfMKeJkr-23" target="y8VJE_J6GTfmhfMKeJkr-29">
          <mxGeometry relative="1" as="geometry">
            <Array as="points">
              <mxPoint x="290" y="835" />
              <mxPoint x="290" y="1155" />
            </Array>
          </mxGeometry>
        </mxCell>
        <mxCell id="y8VJE_J6GTfmhfMKeJkr-61" value="NO" style="edgeLabel;html=1;align=center;verticalAlign=middle;resizable=0;points=[];" vertex="1" connectable="0" parent="y8VJE_J6GTfmhfMKeJkr-59">
          <mxGeometry x="-0.8348" y="1" relative="1" as="geometry">
            <mxPoint as="offset" />
          </mxGeometry>
        </mxCell>
        <mxCell id="y8VJE_J6GTfmhfMKeJkr-23" value="报价员是否配置了二级QA审核人？" style="rhombus;whiteSpace=wrap;html=1;strokeWidth=2;" vertex="1" parent="WIyWlLk6GJQsqaUBKTNV-1">
          <mxGeometry x="355" y="780" width="120" height="110" as="geometry" />
        </mxCell>
        <mxCell id="y8VJE_J6GTfmhfMKeJkr-30" value="" style="edgeStyle=orthogonalEdgeStyle;rounded=0;orthogonalLoop=1;jettySize=auto;html=1;" edge="1" parent="WIyWlLk6GJQsqaUBKTNV-1" source="y8VJE_J6GTfmhfMKeJkr-26" target="y8VJE_J6GTfmhfMKeJkr-29">
          <mxGeometry relative="1" as="geometry" />
        </mxCell>
        <mxCell id="y8VJE_J6GTfmhfMKeJkr-26" value="二级QA审核" style="whiteSpace=wrap;html=1;strokeWidth=2;" vertex="1" parent="WIyWlLk6GJQsqaUBKTNV-1">
          <mxGeometry x="355" y="980" width="120" height="60" as="geometry" />
        </mxCell>
        <mxCell id="y8VJE_J6GTfmhfMKeJkr-32" value="" style="edgeStyle=orthogonalEdgeStyle;rounded=0;orthogonalLoop=1;jettySize=auto;html=1;" edge="1" parent="WIyWlLk6GJQsqaUBKTNV-1" source="y8VJE_J6GTfmhfMKeJkr-29" target="y8VJE_J6GTfmhfMKeJkr-31">
          <mxGeometry relative="1" as="geometry" />
        </mxCell>
        <mxCell id="y8VJE_J6GTfmhfMKeJkr-33" value="YES" style="edgeLabel;html=1;align=center;verticalAlign=middle;resizable=0;points=[];" vertex="1" connectable="0" parent="y8VJE_J6GTfmhfMKeJkr-32">
          <mxGeometry x="-0.5282" y="1" relative="1" as="geometry">
            <mxPoint as="offset" />
          </mxGeometry>
        </mxCell>
        <mxCell id="y8VJE_J6GTfmhfMKeJkr-64" style="edgeStyle=orthogonalEdgeStyle;rounded=0;orthogonalLoop=1;jettySize=auto;html=1;entryX=1;entryY=0.5;entryDx=0;entryDy=0;" edge="1" parent="WIyWlLk6GJQsqaUBKTNV-1" source="y8VJE_J6GTfmhfMKeJkr-29" target="y8VJE_J6GTfmhfMKeJkr-44">
          <mxGeometry relative="1" as="geometry">
            <Array as="points">
              <mxPoint x="530" y="1155" />
              <mxPoint x="530" y="1980" />
            </Array>
          </mxGeometry>
        </mxCell>
        <mxCell id="y8VJE_J6GTfmhfMKeJkr-65" value="NO" style="edgeLabel;html=1;align=center;verticalAlign=middle;resizable=0;points=[];" vertex="1" connectable="0" parent="y8VJE_J6GTfmhfMKeJkr-64">
          <mxGeometry x="-0.9327" y="-2" relative="1" as="geometry">
            <mxPoint as="offset" />
          </mxGeometry>
        </mxCell>
        <mxCell id="y8VJE_J6GTfmhfMKeJkr-29" value="是否有金额变更？" style="rhombus;whiteSpace=wrap;html=1;strokeWidth=2;" vertex="1" parent="WIyWlLk6GJQsqaUBKTNV-1">
          <mxGeometry x="365" y="1110" width="100" height="90" as="geometry" />
        </mxCell>
        <mxCell id="y8VJE_J6GTfmhfMKeJkr-35" value="" style="edgeStyle=orthogonalEdgeStyle;rounded=0;orthogonalLoop=1;jettySize=auto;html=1;" edge="1" parent="WIyWlLk6GJQsqaUBKTNV-1" source="y8VJE_J6GTfmhfMKeJkr-31" target="y8VJE_J6GTfmhfMKeJkr-34">
          <mxGeometry relative="1" as="geometry" />
        </mxCell>
        <mxCell id="y8VJE_J6GTfmhfMKeJkr-36" value="YES" style="edgeLabel;html=1;align=center;verticalAlign=middle;resizable=0;points=[];" vertex="1" connectable="0" parent="y8VJE_J6GTfmhfMKeJkr-35">
          <mxGeometry x="-0.4222" y="2" relative="1" as="geometry">
            <mxPoint as="offset" />
          </mxGeometry>
        </mxCell>
        <mxCell id="y8VJE_J6GTfmhfMKeJkr-31" value="金额是否减少？" style="rhombus;whiteSpace=wrap;html=1;strokeWidth=2;" vertex="1" parent="WIyWlLk6GJQsqaUBKTNV-1">
          <mxGeometry x="365" y="1280" width="100" height="90" as="geometry" />
        </mxCell>
        <mxCell id="y8VJE_J6GTfmhfMKeJkr-38" value="" style="edgeStyle=orthogonalEdgeStyle;rounded=0;orthogonalLoop=1;jettySize=auto;html=1;" edge="1" parent="WIyWlLk6GJQsqaUBKTNV-1" source="y8VJE_J6GTfmhfMKeJkr-34" target="y8VJE_J6GTfmhfMKeJkr-37">
          <mxGeometry relative="1" as="geometry" />
        </mxCell>
        <mxCell id="y8VJE_J6GTfmhfMKeJkr-39" value="YES" style="edgeLabel;html=1;align=center;verticalAlign=middle;resizable=0;points=[];" vertex="1" connectable="0" parent="y8VJE_J6GTfmhfMKeJkr-38">
          <mxGeometry x="-0.6788" relative="1" as="geometry">
            <mxPoint as="offset" />
          </mxGeometry>
        </mxCell>
        <mxCell id="y8VJE_J6GTfmhfMKeJkr-34" value="订单跟单员是否配置了售后变更金额减少审核人？" style="rhombus;whiteSpace=wrap;html=1;strokeWidth=2;" vertex="1" parent="WIyWlLk6GJQsqaUBKTNV-1">
          <mxGeometry x="355" y="1450" width="120" height="120" as="geometry" />
        </mxCell>
        <mxCell id="y8VJE_J6GTfmhfMKeJkr-41" value="" style="edgeStyle=orthogonalEdgeStyle;rounded=0;orthogonalLoop=1;jettySize=auto;html=1;" edge="1" parent="WIyWlLk6GJQsqaUBKTNV-1" source="y8VJE_J6GTfmhfMKeJkr-37" target="y8VJE_J6GTfmhfMKeJkr-40">
          <mxGeometry relative="1" as="geometry" />
        </mxCell>
        <mxCell id="y8VJE_J6GTfmhfMKeJkr-37" value="售后订单金额减少审核" style="whiteSpace=wrap;html=1;strokeWidth=2;" vertex="1" parent="WIyWlLk6GJQsqaUBKTNV-1">
          <mxGeometry x="360" y="1660" width="110" height="60" as="geometry" />
        </mxCell>
        <mxCell id="y8VJE_J6GTfmhfMKeJkr-45" value="" style="edgeStyle=orthogonalEdgeStyle;rounded=0;orthogonalLoop=1;jettySize=auto;html=1;" edge="1" parent="WIyWlLk6GJQsqaUBKTNV-1" source="y8VJE_J6GTfmhfMKeJkr-40" target="y8VJE_J6GTfmhfMKeJkr-44">
          <mxGeometry relative="1" as="geometry" />
        </mxCell>
        <mxCell id="y8VJE_J6GTfmhfMKeJkr-40" value="财务审核" style="whiteSpace=wrap;html=1;strokeWidth=2;" vertex="1" parent="WIyWlLk6GJQsqaUBKTNV-1">
          <mxGeometry x="355" y="1800" width="120" height="60" as="geometry" />
        </mxCell>
        <mxCell id="y8VJE_J6GTfmhfMKeJkr-42" value="用户确认审核" style="whiteSpace=wrap;html=1;strokeWidth=2;" vertex="1" parent="WIyWlLk6GJQsqaUBKTNV-1">
          <mxGeometry x="355" y="2100" width="120" height="60" as="geometry" />
        </mxCell>
        <mxCell id="y8VJE_J6GTfmhfMKeJkr-47" value="" style="edgeStyle=orthogonalEdgeStyle;rounded=0;orthogonalLoop=1;jettySize=auto;html=1;" edge="1" parent="WIyWlLk6GJQsqaUBKTNV-1" source="y8VJE_J6GTfmhfMKeJkr-44" target="y8VJE_J6GTfmhfMKeJkr-42">
          <mxGeometry relative="1" as="geometry" />
        </mxCell>
        <mxCell id="y8VJE_J6GTfmhfMKeJkr-66" value="YES" style="edgeLabel;html=1;align=center;verticalAlign=middle;resizable=0;points=[];" vertex="1" connectable="0" parent="y8VJE_J6GTfmhfMKeJkr-47">
          <mxGeometry x="-0.0286" y="2" relative="1" as="geometry">
            <mxPoint as="offset" />
          </mxGeometry>
        </mxCell>
        <mxCell id="y8VJE_J6GTfmhfMKeJkr-69" style="edgeStyle=orthogonalEdgeStyle;rounded=0;orthogonalLoop=1;jettySize=auto;html=1;entryX=0;entryY=0.5;entryDx=0;entryDy=0;entryPerimeter=0;" edge="1" parent="WIyWlLk6GJQsqaUBKTNV-1">
          <mxGeometry relative="1" as="geometry">
            <mxPoint x="362.25" y="1980" as="sourcePoint" />
            <mxPoint x="365" y="2300" as="targetPoint" />
            <Array as="points">
              <mxPoint x="271" y="1980" />
              <mxPoint x="271" y="2300" />
            </Array>
          </mxGeometry>
        </mxCell>
        <mxCell id="y8VJE_J6GTfmhfMKeJkr-70" value="NO" style="edgeLabel;html=1;align=center;verticalAlign=middle;resizable=0;points=[];" vertex="1" connectable="0" parent="y8VJE_J6GTfmhfMKeJkr-69">
          <mxGeometry x="-0.6725" y="3" relative="1" as="geometry">
            <mxPoint x="31" y="-3" as="offset" />
          </mxGeometry>
        </mxCell>
        <mxCell id="y8VJE_J6GTfmhfMKeJkr-44" value="是否需要用户确认？" style="rhombus;whiteSpace=wrap;html=1;strokeWidth=2;" vertex="1" parent="WIyWlLk6GJQsqaUBKTNV-1">
          <mxGeometry x="361.25" y="1930" width="107.5" height="100" as="geometry" />
        </mxCell>
        <mxCell id="y8VJE_J6GTfmhfMKeJkr-62" style="edgeStyle=orthogonalEdgeStyle;rounded=0;orthogonalLoop=1;jettySize=auto;html=1;entryX=0;entryY=0.617;entryDx=0;entryDy=0;entryPerimeter=0;" edge="1" parent="WIyWlLk6GJQsqaUBKTNV-1" source="y8VJE_J6GTfmhfMKeJkr-31" target="y8VJE_J6GTfmhfMKeJkr-40">
          <mxGeometry relative="1" as="geometry">
            <Array as="points">
              <mxPoint x="300" y="1325" />
              <mxPoint x="300" y="1837" />
            </Array>
          </mxGeometry>
        </mxCell>
        <mxCell id="y8VJE_J6GTfmhfMKeJkr-63" value="NO" style="edgeLabel;html=1;align=center;verticalAlign=middle;resizable=0;points=[];" vertex="1" connectable="0" parent="y8VJE_J6GTfmhfMKeJkr-62">
          <mxGeometry x="-0.8797" relative="1" as="geometry">
            <mxPoint as="offset" />
          </mxGeometry>
        </mxCell>
        <mxCell id="y8VJE_J6GTfmhfMKeJkr-67" value="完成变更" style="strokeWidth=2;html=1;shape=mxgraph.flowchart.terminator;whiteSpace=wrap;" vertex="1" parent="WIyWlLk6GJQsqaUBKTNV-1">
          <mxGeometry x="364" y="2270" width="100" height="60" as="geometry" />
        </mxCell>
        <mxCell id="y8VJE_J6GTfmhfMKeJkr-68" style="edgeStyle=orthogonalEdgeStyle;rounded=0;orthogonalLoop=1;jettySize=auto;html=1;" edge="1" parent="WIyWlLk6GJQsqaUBKTNV-1" source="y8VJE_J6GTfmhfMKeJkr-42" target="y8VJE_J6GTfmhfMKeJkr-67">
          <mxGeometry relative="1" as="geometry">
            <mxPoint x="221" y="2267.02" as="targetPoint" />
            <Array as="points">
              <mxPoint x="415" y="2267" />
              <mxPoint x="414" y="2267" />
            </Array>
          </mxGeometry>
        </mxCell>
      </root>
    </mxGraphModel>
  </diagram>
</mxfile>
